<svg height="800" viewBox="0 0 420 420" width="800" xmlns="http://www.w3.org/2000/svg"><path d="m295.529 77.523c-9.295 17.844-19.983 37.536-32.508 59.89 9.271 15.888 18.678 31.843 27.804 47.32 3.011 5.107 6.012 10.196 8.999 15.267h72.841c8.404-13.483 15.459-24.919 21.84-35.4-7.583-30.808-22.695-58.684-43.275-81.554-18.571-2.289-37.258-4.143-55.701-5.523z" fill="#fff"/><path d="m129.185 235.282c-3.017-5.118-6.012-10.201-9.005-15.282h-72.843c-8.418 13.506-15.474 24.942-21.841 35.401 7.582 30.807 22.693 58.682 43.271 81.552 18.577 2.29 37.266 4.145 55.704 5.524 9.295-17.844 19.983-37.536 32.505-59.885-9.268-15.885-18.667-31.835-27.791-47.31z" fill="#fff"/><path d="m47.337 200h72.84c2.989-5.076 5.994-10.171 9.007-15.282 9.123-15.473 18.527-31.422 27.795-47.305-12.52-22.346-23.21-42.04-32.508-59.89-18.444 1.38-37.132 3.235-55.703 5.524-20.578 22.87-35.689 50.745-43.272 81.553 6.38 10.479 13.436 21.915 21.841 35.4z" fill="#fff"/><path d="m278.248 352.594c-9.272-17.829-19.971-37.553-32.551-60.009-23.715.336-47.676.336-71.393 0-12.575 22.448-23.275 42.175-32.551 60.009 8.79 14.805 16.87 28.735 24.552 42.325 14.033 3.315 28.659 5.078 43.69 5.078 15.036 0 29.666-1.764 43.702-5.08 7.687-13.599 15.766-27.528 24.551-42.323z" fill="#fff"/><path d="m372.663 220h-72.843c-2.99 5.076-5.981 10.154-8.996 15.267-9.127 15.48-18.529 31.434-27.801 47.325 12.526 22.356 23.214 42.048 32.505 59.886 18.448-1.381 37.135-3.236 55.701-5.524 20.58-22.87 35.691-50.745 43.274-81.553-6.377-10.477-13.433-21.913-21.84-35.401z" fill="#fff"/><path d="m166.304 25.081c-7.682 13.591-15.762 27.521-24.552 42.325 9.281 17.844 19.984 37.577 32.561 60.027 23.717-.336 47.656-.336 71.373 0 12.58-22.457 23.284-42.189 32.561-60.027-8.79-14.805-16.87-28.734-24.551-42.323-14.037-3.317-28.667-5.08-43.702-5.08-15.031-0-29.657 1.763-43.69 5.078z" fill="#fff"/><g fill="#6eccae"><path d="m174.282 147.435c-9.301 15.941-18.723 31.929-27.869 47.441-2.986 5.065-5.95 10.095-8.912 15.124 2.962 5.03 5.925 10.06 8.912 15.124 9.146 15.512 18.568 31.5 27.869 47.441 23.737.339 47.7.339 71.435 0 9.305-15.946 18.73-31.939 27.878-47.456 2.983-5.06 5.943-10.085 8.902-15.109-2.959-5.024-5.919-10.049-8.902-15.109-9.149-15.517-18.574-31.51-27.878-47.456-23.736-.339-47.698-.339-71.435 0z"/><path d="m138.073 34.155c-16.157 6.633-31.207 15.423-44.783 26.022 10.405-1.044 20.795-1.949 31.106-2.708 4.754-8.005 9.295-15.746 13.677-23.314z"/><path d="m399.396 194.86c-2.951 4.774-6.068 9.794-9.399 15.14 3.331 5.346 6.448 10.367 9.399 15.14.396-4.995.603-10.042.603-15.137.001-5.097-.207-10.146-.603-15.143z"/><path d="m281.929 385.842c16.155-6.632 31.203-15.421 44.778-26.019-10.403 1.043-20.791 1.949-31.103 2.707-4.751 8.003-9.292 15.742-13.675 23.312z"/><path d="m295.604 57.469c10.309.759 20.697 1.664 31.101 2.708-13.574-10.597-28.622-19.386-44.776-26.018 4.382 7.566 8.922 15.306 13.675 23.31z"/><path d="m20.603 225.141c2.95-4.771 6.067-9.792 9.4-15.141-3.331-5.346-6.448-10.367-9.399-15.14-.396 4.997-.604 10.046-.604 15.142s.208 10.143.603 15.139z"/><path d="m124.396 362.532c-10.31-.759-20.7-1.665-31.107-2.709 13.577 10.6 28.627 19.39 44.785 26.023-4.383-7.568-8.924-15.309-13.678-23.314z"/></g><path d="m415.042 164.6c-.053-.31-.12-.617-.201-.921-8.236-36.438-25.973-69.31-50.461-95.875-.513-.722-1.119-1.375-1.806-1.94-26.54-28.077-60.721-48.855-99.182-58.973-.391-.129-.788-.238-1.192-.317-16.697-4.287-34.189-6.57-52.205-6.57-17.992 0-35.461 2.278-52.138 6.554-.426.082-.844.197-1.256.333-38.46 10.119-72.64 30.897-99.179 58.975-.687.565-1.292 1.216-1.805 1.938-24.487 26.565-42.224 59.438-50.459 95.878-.08.299-.146.601-.198.906-3.238 14.631-4.96 29.824-4.96 45.414 0 15.591 1.722 30.784 4.961 45.415.052.303.117.604.197.901 8.235 36.441 25.972 69.315 50.461 95.881.512.72 1.116 1.371 1.801 1.935 26.577 28.119 60.816 48.918 99.344 59.021.251.078.504.148.761.206 16.777 4.331 34.359 6.637 52.47 6.637 18.116 0 35.703-2.306 52.484-6.64.255-.058.507-.127.757-.205 38.527-10.104 72.765-30.901 99.342-59.018.685-.564 1.289-1.215 1.801-1.935 24.49-26.566 42.228-59.44 50.464-95.881.08-.3.146-.602.198-.908 3.238-14.629 4.96-29.82 4.96-45.409-.001-15.586-1.722-30.775-4.959-45.402zm-133.113 221.242c4.383-7.57 8.923-15.31 13.675-23.311 10.311-.758 20.7-1.664 31.103-2.707-13.575 10.597-28.623 19.386-44.778 26.018zm13.6-43.364c-9.292-17.838-19.979-37.53-32.505-59.886 9.273-15.89 18.674-31.845 27.801-47.325 3.015-5.113 6.006-10.191 8.996-15.267h72.843c8.407 13.488 15.462 24.924 21.841 35.401-7.583 30.808-22.695 58.683-43.274 81.553-18.567 2.288-37.254 4.143-55.702 5.524zm-171.133 20.054c4.754 8.005 9.296 15.746 13.677 23.314-16.157-6.633-31.208-15.423-44.785-26.023 10.408 1.044 20.798 1.95 31.108 2.709zm.076-20.055c-18.439-1.379-37.127-3.234-55.704-5.524-20.578-22.869-35.689-50.744-43.271-81.552 6.368-10.459 13.423-21.895 21.841-35.401h72.843c2.993 5.081 5.988 10.165 9.005 15.282 9.124 15.475 18.523 31.424 27.792 47.309-12.523 22.35-23.211 42.042-32.506 59.886zm13.601-308.322c-4.382 7.568-8.923 15.309-13.677 23.314-10.311.759-20.7 1.664-31.106 2.708 13.576-10.599 28.626-19.389 44.783-26.022zm-13.602 43.368c9.298 17.85 19.988 37.544 32.508 59.89-9.268 15.883-18.672 31.831-27.795 47.305-3.014 5.111-6.018 10.206-9.007 15.282h-72.84c-8.405-13.485-15.461-24.921-21.841-35.4 7.583-30.808 22.694-58.683 43.272-81.553 18.572-2.289 37.259-4.144 55.703-5.524zm158.028 132.477c-2.959 5.024-5.919 10.05-8.902 15.109-9.149 15.516-18.574 31.51-27.878 47.456-23.736.339-47.698.339-71.435 0-9.301-15.94-18.723-31.929-27.869-47.441-2.986-5.065-5.95-10.095-8.912-15.124 2.962-5.03 5.925-10.06 8.912-15.124 9.146-15.512 18.568-31.5 27.869-47.441 23.736-.339 47.699-.339 71.435 0 9.305 15.946 18.73 31.939 27.878 47.456 2.982 5.06 5.942 10.085 8.902 15.109zm-252.496 0c-3.333 5.349-6.45 10.37-9.4 15.141-.395-4.996-.603-10.043-.603-15.139 0-5.097.208-10.145.604-15.142 2.951 4.773 6.068 9.794 9.399 15.14zm359.995 0c3.331-5.345 6.448-10.366 9.399-15.14.396 4.997.604 10.045.604 15.142 0 5.095-.208 10.142-.603 15.137-2.952-4.772-6.069-9.793-9.4-15.139zm-17.334-10h-72.841c-2.986-5.071-5.988-10.161-8.999-15.267-9.125-15.477-18.533-31.432-27.804-47.32 12.525-22.353 23.213-42.046 32.508-59.89 18.443 1.38 37.13 3.234 55.7 5.523 20.58 22.87 35.692 50.746 43.275 81.554-6.381 10.481-13.436 21.917-21.839 35.4zm-77.06-142.531c-4.753-8.004-9.294-15.744-13.675-23.31 16.154 6.632 31.202 15.421 44.776 26.018-10.403-1.044-20.791-1.95-31.101-2.708zm-17.356 9.937c-9.277 17.838-19.981 37.57-32.561 60.027-23.717-.336-47.656-.336-71.373 0-12.577-22.45-23.28-42.183-32.561-60.027 8.79-14.804 16.87-28.734 24.552-42.325 14.033-3.315 28.659-5.078 43.691-5.078 15.036 0 29.666 1.764 43.702 5.08 7.68 13.589 15.76 27.518 24.55 42.323zm-111.944 327.513c-7.682-13.59-15.762-27.52-24.552-42.325 9.276-17.835 19.976-37.561 32.551-60.009 23.717.336 47.678.336 71.393 0 12.58 22.456 23.279 42.181 32.551 60.009-8.784 14.795-16.864 28.724-24.551 42.323-14.037 3.317-28.667 5.08-43.702 5.08-15.031 0-29.657-1.763-43.69-5.078z"/></svg>